<?xml version="1.0" encoding="UTF-8"?>
<svg id="a" data-name="Capa 1" xmlns="http://www.w3.org/2000/svg" viewBox="0 0 85.74 85.74">
  <defs>
    <style>
      .b {
        fill: #f7f3ef;
      }

      .c {
        fill: none;
        stroke: #f7f3ef;
        stroke-miterlimit: 10;
        stroke-width: 2px;
      }
    </style>
  </defs>
  <circle class="c" cx="42.87" cy="42.87" r="41.87"/>
  <g>
    <path class="b" d="M44.94,67.51c4.15,0,8.3,0,12.45,0,2.52,0,4.84-.62,6.89-2.14,4.96-3.67,5.42-10.79,1.32-15.08-2.01-2.1-4.45-3.19-7.39-3.18-4.91.03-9.81.02-14.71,0-3.05,0-4.33-1.31-4.4-4.37-.01-.57,0-1.13,0-1.7,0-6.1.04-5.41,0-11.5-.04-6.31-5.62-11.32-11.75-10.85-5.98.46-11.19,5.78-10.13,12.91.13.86.35,1.73.78,2.51.47.86,1.14,1.16,1.84.84.76-.34.93-.98.75-1.73-.14-.61-.37-1.2-.5-1.81-1.09-4.96,2.65-9.75,7.71-9.91,4.66-.14,8.5,3.45,8.55,8.17.07,6.66.02,6.54.02,13.2,0,.75-.03,1.51.16,2.25.71,2.78,3.11,4.69,6.09,4.71,4.97.03,9.93.01,14.9,0,2.38,0,4.46.7,6.08,2.49,2.06,2.27,2.5,4.92,1.37,7.71-1.13,2.81-3.32,4.43-6.37,4.55-3.14.13-6.29.04-9.43.04-3.19,0-6.38,0-9.58,0-.8,0-1.45.65-1.44,1.45,0,.79.65,1.43,1.44,1.43h5.34v-.02Z"/>
    <path class="b" d="M31.63,61.4c4.28-.02,8.55,0,12.83,0h0c4.21,0,8.43,0,12.64-.01.69,0,1.38.02,2.06-.16,2.34-.61,3.66-2.97,2.93-5.28-.61-1.95-2.1-2.94-4.52-2.94-4.72-.01-9.43,0-14.15,0-1.13,0-2.26-.03-3.36-.35-4.31-1.26-7.01-4.92-7.02-9.61-.02-6.67.02-6.54,0-13.21-.02-3.41-2.79-5.61-6.07-4.91-2.12.45-3.78,2.47-3.78,4.6,0,1.04.48,1.74,1.29,1.76.9.03,1.39-.46,1.48-1.36.03-.25.07-.5.15-.74.34-1.03,1.1-1.6,2.08-1.59.96.01,1.78.64,2.03,1.66.13.54.11,1.12.11,1.68,0,6.42,0,6.04,0,12.45,0,.88.03,1.76.23,2.62,1.29,5.77,6.11,9.71,12.04,9.77,4.72.04,9.43,0,14.15.01.5,0,1.01-.03,1.5.05.78.13,1.26.61,1.2,1.42-.05.71-.5,1.16-1.21,1.23-.62.06-1.26.05-1.88.05-8.05,0-16.1.01-24.15,0-1.4,0-2.75.21-4.08.64-2.19.71-4.03,2.08-5.36,3.82l3.85.02c1.38-1.08,3.06-1.63,5.03-1.64"/>
    <path class="b" d="M62.29,29.58c-2.6.73-4.01,3.39-3.11,5.95.42,1.2,1.22,2.04,2.5,2.32.6.13,1.15-.03,1.45-.61.27-.53.26-1.1-.12-1.6-.15-.19-.39-.31-.58-.48-1.12-1.05-.82-2.36.66-2.83,1.62-.52,3.44.67,3.77,2.47.57,3.11-1.98,5.63-5.09,5.05-2.15-.4-3.42-1.78-4.07-3.76-1.18-3.6-4.81-5.92-8.78-5.86-2.27,0-4.33.64-6.14,2.03-.62.47-1.11,1.01-1.16,1.85-.05.79.04,1.6.78,1.99.84.44.98-.56,1.35-.95,3.17-3.39,10.02-2.64,11.36,2.07.33,1.15.96,2.19,1.8,3.06,2.09,2.2,4.67,2.85,7.57,2.22,2.82-.61,4.38-2.51,5.02-5.23.2-.86.21-1.75.13-2.63-.32-3.6-3.86-6.04-7.33-5.06"/>
    <path class="b" d="M23.71,41.68c.67.53,1.32.73,2.03.14.63-.53.62-1.37-.02-2.19-.69-.88-1.62-1.37-2.73-1.49-3.16-.36-5.76,2.36-5.06,5.6.33,1.53.14,2.22-1.25,3.03-1.89,1.1-2.54,3.05-2.23,5.22.26,1.85,1.38,3.06,3.1,3.7,1.87.71,4.1-.04,4.97-1.6.45-.81.34-1.57-.32-1.99-.79-.52-1.37-.13-2,.42-.93.82-1.55.82-2.31.18-.78-.66-.95-1.61-.41-2.55.65-1.14,1.72-1.65,2.97-1.72,1.19-.07,2.39.01,3.58-.05.76-.04,1.14.28,1.36.98.47,1.51,1.26,2.86,2.06,4.22.9,1.51,1.95,2.58,3.9,1.97.35-.11.74-.06,1.11-.08.06-.11.13-.22.2-.33-2.78-2.31-4.44-5.28-5.22-8.73-.14-.64-.5-.78-1.06-.77-1.01.01-2.01.04-3.02-.02-1.32-.07-2.29-.86-2.68-2.02-.26-.8-.08-1.49.46-2.09.72-.78,1.4-.75,2.57.17"/>
    <path class="b" d="M47.48,18.37c-.5-.37-1.09-.04-1.6.19-.65.3-1.13.79-1.37,1.48-.2.59-.34,1.21-.58,1.79-.49,1.17-.31,2.64-1.56,3.48-.31.21-.07.58.03.86.18.53.38,1.05.61,1.65,5.01-1.2,9.81-1.48,14.28,1.41.61.4.96.07,1.25-.33.35-.5,1.39-.88.7-1.64-.57-.63-.31-1.14-.16-1.71.32-1.15.72-2.27,1-3.43.11-.45.58-.96.17-1.4-.47-.49-1.05-.05-1.59,0-.6.05-.84.45-1.12.85-.49.68-.63,1.49-.87,2.27-.46,1.53-.47,1.52-2.04,1.06-.12-.04-.24-.08-.36-.1-.88-.14-1.13-.59-.84-1.45.42-1.25.78-2.51,1.12-3.79.23-.88-.04-1.17-.91-1.02-1.42.24-2.11,1.21-2.49,2.5-.3,1.01-.24,2.35-1.09,2.9-.9.58-2.2.15-3.32.23-.11,0-.23-.08-.39-.13.16-1.44.82-2.75,1.13-4.15.12-.52.61-1.11,0-1.55"/>
    <path class="b" d="M53.69,40.72c0-2.52-2.12-4.7-4.64-4.77-2.61-.08-4.82,2.04-4.88,4.69-.06,2.66,2.03,4.81,4.71,4.84,2.63.03,4.82-2.14,4.82-4.77M46.77,40.72c0-1.16,1-2.15,2.15-2.14,1.15,0,2.15,1.02,2.13,2.16-.02,1.16-1.01,2.15-2.15,2.14-1.16,0-2.14-.99-2.13-2.16"/>
  </g>
</svg>